<svg xmlns="http://www.w3.org/2000/svg" viewBox="0 0 32 32">
  <!-- Tower base -->
  <rect x="8" y="16" width="16" height="14" rx="1" fill="#7a6a5a"/>
  <rect x="8" y="16" width="16" height="2" fill="#6a5a4a"/>
  <!-- Stone lines -->
  <line x1="8" y1="20" x2="24" y2="20" stroke="#5a4a3a" stroke-width="0.6"/>
  <line x1="8" y1="24" x2="24" y2="24" stroke="#5a4a3a" stroke-width="0.6"/>
  <line x1="8" y1="28" x2="24" y2="28" stroke="#5a4a3a" stroke-width="0.6"/>
  <line x1="14" y1="20" x2="14" y2="30" stroke="#5a4a3a" stroke-width="0.6"/>
  <line x1="20" y1="16" x2="20" y2="30" stroke="#5a4a3a" stroke-width="0.6"/>
  <!-- Tower top platform -->
  <rect x="6" y="12" width="20" height="5" rx="1" fill="#8a7a5a"/>
  <rect x="6" y="12" width="20" height="1.5" fill="#6a5a3a"/>
  <!-- Battlements -->
  <rect x="7" y="8" width="3" height="5" rx="0.5" fill="#7a6a4a"/>
  <rect x="13" y="8" width="3" height="5" rx="0.5" fill="#7a6a4a"/>
  <rect x="19" y="8" width="3" height="5" rx="0.5" fill="#7a6a4a"/>
  <rect x="25" y="8" width="1.5" height="5" rx="0.5" fill="#7a6a4a"/>
  <rect x="5.5" y="8" width="1.5" height="5" rx="0.5" fill="#7a6a4a"/>
  <!-- Ballista frame (mounted on platform) -->
  <rect x="13" y="9" width="6" height="3" rx="0.5" fill="#5a3a0a"/>
  <!-- Ballista bow arms -->
  <path d="M13,10 Q10,8 11,12" stroke="#7a5a1a" stroke-width="1.5" fill="none"/>
  <path d="M19,10 Q22,8 21,12" stroke="#7a5a1a" stroke-width="1.5" fill="none"/>
  <!-- Bowstring -->
  <line x1="11" y1="10" x2="21" y2="10" stroke="#cccc88" stroke-width="0.7"/>
  <!-- Bolt loaded -->
  <line x1="14" y1="10" x2="8" y2="10" stroke="#8a5a1a" stroke-width="1.5"/>
  <polygon points="8,10 10,9 10,11" fill="#aaaaaa"/>
  <!-- Arrow slit window -->
  <rect x="14" y="21" width="4" height="5" rx="0.3" fill="#2a1a0a"/>
  <polygon points="14,21 16,19 18,21" fill="#2a1a0a"/>
</svg>
