<svg xmlns="http://www.w3.org/2000/svg" viewBox="0 0 32 32">
  <!-- Blood Summoner — frame 2 (upright, staff glowing) -->
  <path d="M8,30 Q7,20 9,15 L23,15 Q25,20 24,30 Q20,27 16,30 Q12,27 8,30" fill="#5a0000"/>
  <path d="M9,28 Q8,20 10,15 L22,15 Q24,20 23,28 Q20,25 16,28 Q12,25 9,28" fill="#7a0a0a"/>
  <rect x="10" y="9" width="12" height="7" rx="2" fill="#6a0808"/>
  <rect x="10" y="14" width="12" height="2" fill="#dd2222"/>
  <circle cx="16" cy="7" r="5.5" fill="#e8c090"/>
  <path d="M9,8 Q9,2 16,1 Q23,2 23,8 Q20,6 16,7 Q12,6 9,8" fill="#2a0000"/>
  <circle cx="14" cy="7" r="1.8" fill="#ff4444" opacity="0.95"/>
  <circle cx="18" cy="7" r="1.8" fill="#ff4444" opacity="0.95"/>
  <rect x="25" y="3" width="2" height="22" rx="1" fill="#5a3a1a"/>
  <!-- Glowing skull — active summoning -->
  <circle cx="26" cy="4" r="3.2" fill="#e8e0d0"/>
  <circle cx="26" cy="4" r="3.5" fill="none" stroke="#ff2222" stroke-width="0.8" opacity="0.7"/>
  <circle cx="24.5" cy="4.5" r="0.8" fill="#ff0000"/>
  <circle cx="27.5" cy="4.5" r="0.8" fill="#ff0000"/>
  <path d="M24.5,6 Q26,7 27.5,6" fill="none" stroke="#333" stroke-width="0.7"/>
  <rect x="4" y="10" width="7" height="2.5" rx="1" fill="#6a0808" transform="rotate(-30,7,11)"/>
  <circle cx="26" cy="24" r="1.5" fill="#cc0000" opacity="0.9"/>
  <circle cx="26" cy="27" r="1" fill="#cc0000" opacity="0.7"/>
  <circle cx="25" cy="30" r="0.7" fill="#cc0000" opacity="0.5"/>
</svg>
