<svg xmlns="http://www.w3.org/2000/svg" viewBox="0 0 32 32">
  <!-- Horned helm -->
  <rect x="10" y="5" width="12" height="8" rx="2" fill="#1A0A0A"/>
  <rect x="11" y="6" width="10" height="6" rx="1" fill="#3A1010"/>
  <!-- Horns -->
  <path d="M11,6 L8,2 L13,7" fill="#CC2200"/>
  <path d="M21,6 L24,2 L19,7" fill="#CC2200"/>
  <!-- Eye slit glowing orange -->
  <rect x="12" y="8" width="8" height="2" rx="1" fill="#FF4400"/>
  <!-- Flame glow around head -->
  <path d="M9,7 Q5,4 7,9" stroke="#FF6600" stroke-width="1.5" fill="none" opacity="0.7"/>
  <path d="M23,7 Q27,4 25,9" stroke="#FF6600" stroke-width="1.5" fill="none" opacity="0.7"/>
  <!-- Heavy armoured body -->
  <rect x="9" y="13" width="14" height="10" rx="2" fill="#2A0A0A"/>
  <rect x="10" y="14" width="12" height="8" fill="#3A1010"/>
  <!-- Chest fire emblem -->
  <path d="M16,15 Q14,18 15,20 Q16,17 17,20 Q18,18 16,15" fill="#FF4400"/>
  <!-- Shoulder plates -->
  <rect x="5"  y="13" width="5" height="6" rx="2" fill="#CC2200"/>
  <rect x="22" y="13" width="5" height="6" rx="2" fill="#CC2200"/>
  <!-- Arms -->
  <rect x="5"  y="19" width="4" height="8" rx="1" fill="#2A0A0A"/>
  <rect x="23" y="19" width="4" height="8" rx="1" fill="#2A0A0A"/>
  <!-- Flaming greatsword -->
  <rect x="2"  y="6" width="2" height="22" rx="0.5" fill="#888"/>
  <rect x="1.5" y="6" width="3" height="1" fill="#555"/>
  <path d="M2,6 Q0,3 3,4 Q4,2 3,6" fill="#FF4400" opacity="0.9"/>
  <path d="M3,6 Q5,3 3,4" fill="#FF6600" opacity="0.7"/>
  <!-- Belt -->
  <rect x="9" y="23" width="14" height="2" fill="#5C1010"/>
  <!-- Legs (static = frame 2) -->
  <rect x="10" y="25" width="5" height="7" rx="1" fill="#2A0A0A"/>
  <rect x="17" y="25" width="5" height="7" rx="1" fill="#2A0A0A"/>
  <rect x="9"  y="30" width="7" height="2" rx="1" fill="#1A0000"/>
  <rect x="16" y="30" width="7" height="2" rx="1" fill="#1A0000"/>
</svg>
