<svg xmlns="http://www.w3.org/2000/svg" viewBox="0 0 32 32">
  <!-- Head slightly lower -->
  <ellipse cx="16" cy="6" rx="5" ry="5" fill="#445577"/>
  <ellipse cx="16" cy="5" rx="4" ry="3" fill="#667799"/>
  <rect x="13" y="6" width="2" height="1.5" rx="0.5" fill="#88ddff"/>
  <rect x="17" y="6" width="2" height="1.5" rx="0.5" fill="#88ddff"/>
  <rect x="13" y="11" width="6" height="3" rx="1" fill="#334466"/>
  <rect x="11" y="14" width="10" height="11" rx="1" fill="#445577"/>
  <rect x="11" y="14" width="10" height="4" rx="1" fill="#667799"/>
  <rect x="11" y="23" width="10" height="2" fill="#223355"/>
  <rect x="7" y="14" width="4" height="9" rx="1" fill="#445577"/>
  <rect x="21" y="12" width="4" height="9" rx="1" fill="#445577"/>
  <rect x="23" y="3" width="2" height="12" rx="1" fill="#aaddff"/>
  <rect x="23.5" y="3" width="1" height="12" rx="0.5" fill="#ffffff" opacity="0.7"/>
  <rect x="20" y="13" width="8" height="2" rx="1" fill="#88aacc"/>
  <!-- Legs level -->
  <rect x="12" y="25" width="4" height="7" rx="1" fill="#334466"/>
  <rect x="17" y="25" width="4" height="7" rx="1" fill="#334466"/>
</svg>
