<svg xmlns="http://www.w3.org/2000/svg" viewBox="0 0 32 32">
  <!-- Leaf wings -->
  <path d="M11,15 Q3,6 1,10 Q5,19 11,17 Z" fill="#6B8F5A"/>
  <path d="M21,15 Q29,6 31,10 Q27,19 21,17 Z" fill="#6B8F5A"/>
  <path d="M10,16 L3,10 M22,16 L29,10" stroke="#4A6B3C" stroke-width="0.8"/>
  <!-- Grafted bone-branch body and root tail -->
  <path d="M16,19 Q14,25 17,30" stroke="#4A3A2E" stroke-width="2.4" fill="none"/>
  <path d="M15.6,23 L11,25 M16.6,27 L21,28" stroke="#E8E0CC" stroke-width="1.4"/>
  <path d="M17,30 L14,31 M17,30 L20,31" stroke="#7A5A3C" stroke-width="1"/>
  <!-- Great blossom head with grieving face -->
  <circle cx="16" cy="8" r="4.4" fill="#E8A0B8"/><circle cx="10.6" cy="10" r="4" fill="#E8A0B8"/><circle cx="21.4" cy="10" r="4" fill="#E8A0B8"/>
  <circle cx="12.4" cy="15" r="3.6" fill="#F2B8CA"/><circle cx="19.6" cy="15" r="3.6" fill="#F2B8CA"/>
  <circle cx="16" cy="11.4" r="4.4" fill="#F6D86A"/>
  <circle cx="14.4" cy="10.6" r="0.8" fill="#4A3A2E"/><circle cx="17.6" cy="10.6" r="0.8" fill="#4A3A2E"/>
  <path d="M14.2,13.4 Q16,12.2 17.8,13.4" stroke="#4A3A2E" stroke-width="0.8" fill="none"/>
  <circle cx="14" cy="12.4" r="0.5" fill="#9FD8F0"/>
</svg>
