<svg xmlns="http://www.w3.org/2000/svg" viewBox="0 0 32 32">
  <!-- Ward lantern on a pole carried forward -->
  <rect x="20" y="5" width="1.4" height="13" fill="#6B4F3A" transform="rotate(-14 20.7 12)"/>
  <rect x="21.4" y="0.6" width="5.6" height="6" rx="1.2" fill="#F0C060"/>
  <rect x="22.6" y="1.8" width="3.2" height="3.6" fill="#FFF2B0"/>
  <path d="M21.4,0.6 L24.2,-1 L27,0.6" stroke="#4A5066" stroke-width="1" fill="none"/>
  <!-- Hood and face -->
  <path d="M9.6,9 Q14,2.6 19.4,9 L18,12.4 H10.6 Z" fill="#2A2145"/>
  <circle cx="14.6" cy="9.8" r="3" fill="#E3D9CF"/>
  <circle cx="15.8" cy="9.6" r="0.5" fill="#120F1E"/>
  <!-- Travelling jacket with key ring and scroll satchel -->
  <path d="M10.6,12.6 H18.6 L19,19.6 H10 Z" fill="#5A3A6A"/>
  <rect x="3.6" y="12" width="5.6" height="7" rx="1.2" fill="#8A4A3A" transform="rotate(-14 6 15)"/>
  <circle cx="5" cy="12.6" r="1" fill="#F0C060"/>
  <circle cx="17" cy="18" r="1.6" fill="none" stroke="#F0C060" stroke-width="0.8"/>
  <path d="M17,19.4 V22 M15.8,21 H17 M18.8,20.6 H17" stroke="#F0C060" stroke-width="0.8"/>
  <rect x="17.6" y="13" width="6.6" height="2.2" rx="1.1" fill="#5A3A6A" transform="rotate(-26 17.6 14)"/>
  <rect x="10.4" y="19.6" width="3.5" height="9.8" rx="1" fill="#171230"/>
  <rect x="14.4" y="19.6" width="3.5" height="9.8" rx="1" fill="#171230"/>
  <rect x="9.4" y="27.400000000000002" width="5.5" height="3" rx="1" fill="#6B4F3A"/>
  <rect x="13.9" y="27.400000000000002" width="5.5" height="3" rx="1" fill="#6B4F3A"/>
</svg>
